<svg width="156" height="32" viewBox="0 0 156 32" fill="none" xmlns="http://www.w3.org/2000/svg">
<g clip-path="url(#clip0_2382_42246)">
<mask id="mask0_2382_42246" style="mask-type:luminance" maskUnits="userSpaceOnUse" x="-66" y="-165" width="407" height="340">
<path d="M-65.5225 -164.567H340.816V174.049H-65.5225V-164.567Z" fill="white"/>
</mask>
<g mask="url(#mask0_2382_42246)">
<path d="M18.5195 1.73413C8.86557 1.73413 4.04199 4.79014 4.04199 10.9055C4.04199 15.895 7.13863 18.885 13.3285 19.8772V6.99452H17.6831V15.5175H26.5887V7.11135H30.9433V9.35806L41.6791 1.73413H18.5195Z" fill="#89C9FF"/>
<path d="M30.9436 25.273H26.589V17.9369H17.6834V25.2222H13.3288V22.9095L2.59473 30.5334H27.2019C36.8541 30.5334 41.6794 27.4232 41.6794 21.1944C41.6794 15.9306 38.1002 12.9288 30.9436 12.1974V25.273Z" fill="#89C9FF"/>
<path fill-rule="evenodd" clip-rule="evenodd" d="M53.1787 12.3751C53.1787 10.7599 53.7442 9.54261 54.8752 8.72316C56.0061 7.90372 57.4216 7.49399 59.1214 7.49399C60.6181 7.49399 62.1114 7.8817 63.5996 8.65544V11.5929C62.3145 10.7481 60.9398 10.3248 59.4753 10.3248C58.5559 10.3248 57.7771 10.484 57.1388 10.8006C56.4988 11.1172 56.1805 11.6183 56.1805 12.3006C56.1805 12.8543 56.4717 13.2877 57.0525 13.6009C57.6349 13.9141 58.3375 14.1783 59.1637 14.3933C59.99 14.61 60.8196 14.8809 61.6526 15.206C62.4872 15.531 63.1949 16.0948 63.7757 16.8957C64.3581 17.6965 64.6493 18.7309 64.6493 20.0008C64.6493 21.34 64.0906 22.4337 62.9765 23.2819C61.8625 24.1285 60.5046 24.5517 58.9013 24.5517C56.7867 24.5517 54.9514 24.0862 53.3988 23.155V20.1227C54.8295 21.1893 56.4328 21.7209 58.2055 21.7209C60.4996 21.7209 61.6475 21.0826 61.6475 19.8061C61.6475 19.2287 61.4392 18.7479 61.0244 18.3652C60.6096 17.9843 60.0848 17.6999 59.4499 17.517C58.8167 17.3342 58.136 17.1191 57.4131 16.8703C56.6885 16.6231 56.0095 16.3522 55.3746 16.0593C54.7414 15.7664 54.2166 15.3092 53.8018 14.6862C53.387 14.0648 53.1787 13.2945 53.1787 12.3751ZM67.7595 24.357V7.21294H70.7613V16.4622L74.9584 11.8858H78.9372L73.5075 17.4374L79.5094 24.357H75.7152L71.5909 19.4387L70.7613 20.2818V24.357H67.7595ZM82.0609 11.8858H85.0627V24.357H82.0609V11.8858ZM82.0118 7.44489H85.0864V10.1911H82.0118V7.44489ZM89.2226 7.14014H92.2244V24.357H89.2226V7.14014ZM96.3369 7.14014H99.3387V24.357H96.3369V7.14014ZM104.023 24.357V7.68869H107.025V14.6066H114.102V7.68869H117.104V24.357H114.102V17.4374H107.025V24.357H104.023ZM121.911 22.8925C120.895 21.787 120.385 20.2005 120.385 18.1333C120.385 16.0677 120.895 14.4813 121.911 13.3757C122.928 12.2685 124.386 11.7148 126.286 11.7148C128.185 11.7148 129.643 12.2685 130.659 13.3757C131.676 14.4813 132.184 16.0677 132.184 18.1333C132.184 20.2005 131.676 21.787 130.659 22.8925C129.643 23.9981 128.185 24.5517 126.286 24.5517C124.386 24.5517 122.928 23.9981 121.911 22.8925ZM124.102 14.9977C123.626 15.5429 123.387 16.5909 123.387 18.1401C123.387 19.6892 123.626 20.7356 124.102 21.2756C124.577 21.8174 125.307 22.0866 126.293 22.0866C127.276 22.0866 128.004 21.8174 128.477 21.2756C128.947 20.7356 129.184 19.6892 129.184 18.1401C129.184 16.5909 128.947 15.5429 128.477 14.9977C128.004 14.4525 127.276 14.18 126.293 14.18C125.307 14.18 124.577 14.4525 124.102 14.9977ZM134.528 15.5886C134.528 14.334 134.97 13.3707 135.852 12.6985C136.734 12.0264 137.834 11.6911 139.153 11.6911C140.389 11.6911 141.523 11.9874 142.556 12.5817V14.8657C141.71 14.4661 140.751 14.2663 139.676 14.2663C138.246 14.2663 137.529 14.6168 137.529 15.3177C137.529 15.6699 137.733 15.9441 138.139 16.1439C138.545 16.3437 139.043 16.5198 139.629 16.6705C140.215 16.8228 140.797 17.026 141.38 17.2834C141.96 17.5407 142.456 17.9741 142.868 18.587C143.279 19.1982 143.484 19.9787 143.484 20.9252C143.484 21.9681 143.059 22.8333 142.209 23.5207C141.359 24.2081 140.233 24.5517 138.835 24.5517C137.402 24.5517 136.085 24.2131 134.881 23.5359V20.8761C135.98 21.6109 137.155 21.9766 138.408 21.9766C139.27 21.9766 139.832 21.8767 140.093 21.6769C140.352 21.4771 140.482 21.1774 140.482 20.7779C140.482 20.4105 140.277 20.1142 139.866 19.8907C139.454 19.6655 138.958 19.4708 138.378 19.3032C137.795 19.1356 137.215 18.9375 136.632 18.7089C136.051 18.4804 135.555 18.1028 135.144 17.5763C134.732 17.0514 134.528 16.3877 134.528 15.5886ZM145.338 14.461V11.8858H147.437V8.18984H150.439V11.8858H153.392V14.461H150.439V20.6103C150.439 21.147 150.551 21.5093 150.774 21.6972C150.998 21.8835 151.394 21.9783 151.965 21.9783C152.501 21.9783 152.977 21.8885 153.392 21.7091V24.186C152.806 24.4298 152.168 24.5517 151.475 24.5517H151.414C150.178 24.5517 149.207 24.186 148.499 23.4529C147.791 22.7215 147.437 21.7125 147.437 20.4274V14.461H145.338Z" fill="white"/>
</g>
</g>
<defs>
<clipPath id="clip0_2382_42246">
<rect width="155.932" height="31.9992" fill="white" transform="translate(0 0.000610352)"/>
</clipPath>
</defs>
</svg>
